<svg xmlns="http://www.w3.org/2000/svg" width="64" height="64" viewBox="0 0 64 64">
  <defs>
    <linearGradient id="g" x1="0%" y1="0%" x2="100%" y2="100%">
      <stop offset="0%" stop-color="#a368fc"/>
      <stop offset="100%" stop-color="#7a0ecc"/>
    </linearGradient>
  </defs>
  <rect width="64" height="64" rx="2" fill="url(#g)"/>
  <g transform="translate(4.42,2.30)" opacity="0.7"><path fill="#ffffff" d="M3.0055749511718752 10.1Q2.277254638671875 10.1 1.7310144042968751 9.79614990234375Q1.184774169921875 9.4922998046875 0.8814990234375 8.944976744218305Q0.578223876953125 8.397653683749112 0.578223876953125 7.674774169921875Q0.578223876953125 7.146899414062499 0.7487115478515625 6.588136596679687Q0.91919921875 6.029373779296876 1.22919921875 5.5305236816406245L2.975123291015625 2.7H4.2716015625L2.135225830078125 6.08195068359375L2.1885009765625 6.116375732421875Q2.391776123046875 5.818675537109375 2.728599796473423 5.659825439453124Q3.065423469899971 5.500975341796875 3.4839013671875 5.500975341796875Q4.070626220703125 5.500975341796875 4.506201171875 5.7787628173828125Q4.941776123046875 6.056550292968749 5.181776123046875 6.559912719726562Q5.421776123046875 7.063275146484375 5.421776123046875 7.745574951171875Q5.421776123046875 8.45 5.1184435083959015 8.98Q4.815110893744928 9.51 4.276434009106128 9.805Q3.7377571244673296 10.1 3.0055749511718752 10.1ZM2.999613345248028 9.100872802734376Q3.573624267578125 9.100872802734376 3.9237988281250002 8.731685515372984Q4.273973388671875 8.362498228011592 4.273973388671875 7.754425048828125Q4.273973388671875 7.142355051348286 3.9241854828769718 6.770741124306955Q3.574397577082069 6.399127197265624 3.000386654751972 6.399127197265624Q2.426375732421875 6.399127197265624 2.0762011718749998 6.770741124306955Q1.726026611328125 7.142355051348286 1.726026611328125 7.754425048828125Q1.726026611328125 8.362498228011592 2.0758145171230282 8.731685515372984Q2.425602422917931 9.100872802734376 2.999613345248028 9.100872802734376ZM8.920975341796876 10.1Q8.22114990234375 10.1 7.704024658203125 9.839425048828126Q7.1868994140625 9.57885009765625 6.903624267578126 9.106637573242187Q6.62034912109375 8.634425048828124 6.62034912109375 8.0H7.78585205078125Q7.78585205078125 8.517073974609374 8.0866015625 8.808973388671875Q8.38735107421875 9.100872802734376 8.92655029296875 9.100872802734376Q9.47574951171875 9.100872802734376 9.7714990234375 8.802823486328126Q10.06724853515625 8.504774169921875 10.06724853515625 8.0V7.444599609375Q10.06724853515625 6.917525634765624 9.769286499023437 6.628413696289062Q9.471324462890625 6.3393017578125 8.92655029296875 6.3393017578125H8.127874755859375V5.266724853515625L9.787423095703126 3.7102770996093746H6.942474365234375V2.7H10.971776123046876V3.7725769042968746L8.9377001953125 5.662576904296875V5.331324462890625Q9.995225830078125 5.331324462890625 10.613988647460939 5.901324462890624Q11.232751464843751 6.471324462890625 11.232751464843751 7.440174560546875V8.0Q11.232751464843751 8.634425048828124 10.948901367187501 9.106637573242187Q10.66505126953125 9.57885009765625 10.142926025390626 9.839425048828126Q9.62080078125 10.1 8.920975341796876 10.1Z"/></g>
  <g transform="translate(13.91,12.95)"><path fill="#ffffff" d="M2.4 30.0V8.100000000000001H15.899999999999999V11.940000000000001H6.81V16.86H14.85V20.700000000000003H6.81V26.16H15.899999999999999V30.0ZM23.25 30.0V19.5H18.869999999999997V15.450000000000001H23.25V13.2Q23.25 10.89 24.825 9.495000000000001Q26.4 8.100000000000001 28.949999999999996 8.100000000000001H33.78V12.0H29.099999999999998Q28.5 12.0 28.125 12.375Q27.75 12.75 27.75 13.350000000000001V15.450000000000001H33.78V19.5H27.75V30.0Z"/></g>
  <g transform="translate(15.31,48.93)" opacity="0.7"><path fill="#ffffff" d="M0.5769863281250001 6.798626953125V5.042359375Q0.5769863281250001 3.840986328125 1.778359375 3.840986328125H2.818359375Q4.0140273437500005 3.840986328125 4.0140273437500005 5.042359375V6.16602734375H1.216966796875V6.878626953125Q1.216966796875 7.439033203125 1.777373046875 7.439033203125H3.85402734375V7.760857421875L3.533640625 8.0H1.778359375Q0.5769863281250001 8.0 0.5769863281250001 6.798626953125ZM1.216966796875 5.6486640625H3.374046875V4.962359375Q3.374046875 4.401953125 2.813640625 4.401953125H1.777373046875Q1.216966796875 4.401953125 1.216966796875 4.962359375ZM5.200986328125 6.798626953125V3.840986328125H5.8409667968750005V6.878626953125Q5.8409667968750005 7.439033203125 6.401373046875 7.439033203125H7.998046875V3.840986328125H8.63802734375V8.0H6.4023593750000005Q5.200986328125 8.0 5.200986328125 6.798626953125ZM9.888986328125 8.0V4.32Q10.170166015625 3.840986328125 10.930359375 3.840986328125H11.729373046874999L12.049759765625 4.08012890625V4.401953125H11.016580078125Q10.676248046875 4.401953125 10.528966796875 4.581234374999999V8.0ZM12.832986328125001 6.798626953125V5.042359375Q12.832986328125001 3.840986328125 14.034359375000001 3.840986328125H15.154359375Q16.35002734375 3.840986328125 16.35002734375 5.042359375V6.798626953125Q16.35002734375 8.0 15.154359375 8.0H14.034359375000001Q12.832986328125001 8.0 12.832986328125001 6.798626953125ZM13.472966796875 6.878626953125Q13.472966796875 7.439033203125 14.033373046875 7.439033203125H15.149640625Q15.710046875 7.439033203125 15.710046875 6.878626953125V4.962359375Q15.710046875 4.401953125 15.149640625 4.401953125H14.033373046875Q13.472966796875 4.401953125 13.472966796875 4.962359375ZM17.568986328125 8.0V3.281373046875Q17.568986328125 2.08 18.770359375 2.08H19.489373046875002L19.809759765625 2.3191425781249997V2.6409667968749995H18.769373046875Q18.208966796875 2.6409667968749995 18.208966796875 3.201373046875V3.840986328125H19.729759765625V4.401953125H18.208966796875V8.0ZM20.576986328125 6.863033203125V2.08H21.216966796875V6.9248671875Q21.216966796875 7.482443359375 21.7791328125 7.510869521722561V8.0651796875Q20.576986328125 8.0651796875 20.576986328125 6.863033203125ZM22.624986328125 6.798626953125V5.042359375Q22.624986328125 3.840986328125 23.826359375000003 3.840986328125H24.946359375Q26.14202734375 3.840986328125 26.14202734375 5.042359375V6.798626953125Q26.14202734375 8.0 24.946359375 8.0H23.826359375000003Q22.624986328125 8.0 22.624986328125 6.798626953125ZM23.264966796875 6.878626953125Q23.264966796875 7.439033203125 23.825373046875 7.439033203125H24.941640625Q25.502046875 7.439033203125 25.502046875 6.878626953125V4.962359375Q25.502046875 4.401953125 24.941640625 4.401953125H23.825373046875Q23.264966796875 4.401953125 23.264966796875 4.962359375ZM26.9108203125 3.953115234375 26.989769531249998 3.840986328125H27.518736328124998L28.368515625 7.439033203125H28.480386718749997L29.49351171875 3.840986328125H30.2238515625L31.236976562499997 7.439033203125H31.354552734374998L32.20433203125 3.840986328125H32.72759375L32.80654296875 3.953115234375L31.834275390625 8.0H30.804203125L29.858681640625 4.5726992187499995L28.913160156249997 8.0H27.88879296875Z"/></g>
</svg>
