<svg xmlns="http://www.w3.org/2000/svg" viewBox="1.12 16.80 312.45 68.00" width="312" height="68">
  <path fill="#ffffff" d="M5.1233154296875005 67.0354638671875V50.7278515625Q5.1233154296875005 37.7633154296875 18.0878515625 37.7633154296875H28.4878515625Q41.433369140625004 37.7633154296875 41.433369140625004 50.7278515625V62.953369140625H16.1630517578125V67.8354638671875Q16.1630517578125 70.3969482421875 18.7245361328125 70.3969482421875H39.833369140625V76.4295751953125L35.0321484375 80.0H18.0878515625Q5.1233154296875005 80.0 5.1233154296875005 67.0354638671875ZM16.1630517578125 54.50896484375H30.3936328125V49.927851562499995Q30.3936328125 47.366367187499996 27.8321484375 47.366367187499996H18.7245361328125Q16.1630517578125 47.366367187499996 16.1630517578125 49.927851562499995ZM47.2033154296875 67.0354638671875V37.7633154296875H58.243051757812495V67.8354638671875Q58.243051757812495 70.3969482421875 60.8045361328125 70.3969482421875H72.4736328125V37.7633154296875H83.513369140625V80.0H60.1678515625Q47.2033154296875 80.0 47.2033154296875 67.0354638671875ZM89.9233154296875 80.0V43.199999999999996Q92.8872412109375 37.7633154296875 101.28785156250001 37.7633154296875H109.9245361328125L114.7257568359375 41.333740234375V47.366367187499996H104.24183105468751Q101.8273486328125 47.366367187499996 100.96305175781251 48.550664062500005V80.0ZM117.1233154296875 67.0354638671875V50.7278515625Q117.1233154296875 37.7633154296875 130.0878515625 37.7633154296875H141.2878515625Q154.233369140625 37.7633154296875 154.233369140625 50.7278515625V67.0354638671875Q154.233369140625 80.0 141.2878515625 80.0H130.0878515625Q117.1233154296875 80.0 117.1233154296875 67.0354638671875ZM128.1630517578125 67.8354638671875Q128.1630517578125 70.3969482421875 130.7245361328125 70.3969482421875H140.6321484375Q143.1936328125 70.3969482421875 143.1936328125 67.8354638671875V49.927851562499995Q143.1936328125 47.366367187499996 140.6321484375 47.366367187499996H130.7245361328125Q128.1630517578125 47.366367187499996 128.1630517578125 49.927851562499995ZM160.3233154296875 80.0V33.7645361328125Q160.3233154296875 20.799999999999997 173.2878515625 20.799999999999997H181.1245361328125L185.9257568359375 24.370424804687502V30.4030517578125H173.9245361328125Q171.3630517578125 30.4030517578125 171.3630517578125 32.9645361328125V37.7633154296875H185.1257568359375V47.366367187499996H171.3630517578125V80.0ZM188.1633154296875 64.6369482421875V20.799999999999997H199.2030517578125V65.74970703125Q199.2030517578125 70.7549853515625 204.33029296875 71.24517756764482V80.80392578125Q188.1633154296875 80.80392578125 188.1633154296875 64.6369482421875ZM207.8433154296875 67.0354638671875V50.7278515625Q207.8433154296875 37.7633154296875 220.8078515625 37.7633154296875H232.0078515625Q244.953369140625 37.7633154296875 244.953369140625 50.7278515625V67.0354638671875Q244.953369140625 80.0 232.0078515625 80.0H220.8078515625Q207.8433154296875 80.0 207.8433154296875 67.0354638671875ZM218.8830517578125 67.8354638671875Q218.8830517578125 70.3969482421875 221.4445361328125 70.3969482421875H231.3521484375Q233.9136328125 70.3969482421875 233.9136328125 67.8354638671875V49.927851562499995Q233.9136328125 47.366367187499996 231.3521484375 47.366367187499996H221.4445361328125Q218.8830517578125 47.366367187499996 218.8830517578125 49.927851562499995ZM247.03607421875 39.4170556640625 248.205888671875 37.7633154296875H257.4889404296875L263.8949609375 70.3969482421875H264.481220703125L272.178408203125 37.7633154296875H284.42599609375L292.12318359375 70.3969482421875H292.7284619140625L299.134482421875 37.7633154296875H308.398515625L309.568330078125 39.4170556640625L301.1007177734375 80.0H284.60074218750003L278.3022021484375 50.975439453125L272.003662109375 80.0H255.522705078125Z"/>
</svg>
